<svg width="126" height="32" viewBox="0 0 126 32" fill="#121314" xmlns="http://www.w3.org/2000/svg">
<path d="M32.8141 16.4239V12.1386H29.2541V8.70728H24.8081V12.1386H21.8481V16.4239H24.8081V19.2326C24.8081 24.1058 27.8761 27.1323 32.8141 27.1323V22.847C31.0541 22.847 29.2541 22.4172 29.2541 19.2326V16.4239H32.8141Z" />
<path d="M103.504 12.1387H99.0581V25.0428H103.504V12.1387Z"/>
<path d="M44.9302 27.1845C40.0142 27.1845 36.0122 23.6163 36.0122 19.2326V12.1387H40.4582V19.2326C40.4582 21.2548 42.4642 22.8992 44.9282 22.8992C47.3922 22.8992 49.3982 21.2548 49.3982 19.2326V12.1387H53.8442V25.0428H51.0102C49.4162 26.371 47.2762 27.1864 44.9262 27.1864L44.9302 27.1845Z" />
<path d="M124.766 25.0428H120.32V17.9489C120.32 15.9267 118.314 14.2823 115.85 14.2823C113.386 14.2823 111.38 15.9267 111.38 17.9489V25.0428H106.934V12.1387H109.768C111.362 10.8105 113.502 9.99512 115.852 9.99512C120.768 9.99512 124.77 13.5633 124.77 17.9469V25.0409L124.766 25.0428Z" />
<path d="M70.0345 5.68652V11.1593C68.7185 10.421 67.1925 9.99688 65.5645 9.99688C60.6485 9.99688 56.6465 13.8523 56.6465 18.5925C56.6465 23.3328 60.6465 27.1882 65.5645 27.1882C67.8465 27.1882 69.9305 26.3574 71.5105 24.9925H74.4825V5.68652H70.0365H70.0345ZM65.5645 22.8991C63.0985 22.8991 61.0945 20.9656 61.0945 18.5906C61.0945 16.2157 63.1005 14.2822 65.5645 14.2822C68.0285 14.2822 70.0345 16.2157 70.0345 18.5906C70.0345 20.9656 68.0285 22.8991 65.5645 22.8991Z" />
<path d="M91.1882 12.1387V19.2326C91.1882 21.2548 89.1822 22.8992 86.7182 22.8992C84.2542 22.8992 82.2482 21.2548 82.2482 19.2326V12.1387H77.8022V19.2326C77.8022 23.6182 81.8022 27.1845 86.7202 27.1845C88.3482 27.1845 89.8762 26.7912 91.1902 26.1088V31.09H95.6362V12.1387H91.1902H91.1882Z" />
<path d="M101.28 10.3284C102.855 10.3284 104.132 9.09767 104.132 7.57948C104.132 6.0613 102.855 4.83057 101.28 4.83057C99.7051 4.83057 98.4282 6.0613 98.4282 7.57948C98.4282 9.09767 99.7051 10.3284 101.28 10.3284Z"/>
<path d="M11.0983 27.1844C9.15027 27.169 6.64027 26.9608 4.46027 25.5112C2.52027 24.2215 1.37627 22.0124 1.40027 19.6008L5.84627 19.6413C5.83627 20.6128 6.27427 21.5092 6.98627 21.9834C7.91427 22.6003 9.19427 22.8837 11.1403 22.8991H11.1523C12.0563 22.9068 14.2443 22.7912 15.0443 21.5632C15.4223 20.983 15.5023 20.208 15.2463 19.5873C15.0063 19.0032 14.5223 18.5887 13.8083 18.3555C12.8963 18.0567 11.8283 17.9815 10.7003 17.9025C10.0563 17.8581 9.38827 17.8119 8.70627 17.7213C6.40027 17.4167 4.66227 16.6186 3.54427 15.3502C1.47827 13.008 1.68027 9.30104 3.99627 7.0861C5.63827 5.51309 8.08027 4.71309 10.8723 4.83068C16.4903 5.06971 18.9743 8.64369 18.9463 12.0789L14.5003 12.0442C14.5163 10.2591 13.1583 9.21815 10.6783 9.11212C9.78627 9.07357 8.14427 9.15646 7.13027 10.1261C6.46027 10.7661 6.36627 11.9343 6.93227 12.5743C7.31027 13.0022 8.15427 13.3222 9.30827 13.4745C9.85027 13.5459 10.4183 13.5863 11.0203 13.6268C12.3183 13.7174 13.7883 13.8196 15.2423 14.2957C17.1863 14.9338 18.6563 16.2485 19.3783 18.0008C20.1663 19.9073 19.9523 22.0914 18.8083 23.8437C17.3843 26.0239 14.6523 27.2114 11.1163 27.1825H11.0983V27.1844Z"/>
</svg>
